<svg xmlns="http://www.w3.org/2000/svg" xmlns:xlink="http://www.w3.org/1999/xlink" width="300" zoomAndPan="magnify" viewBox="0 0 224.87999 299.999988" height="400" preserveAspectRatio="xMidYMid meet" version="1.0"><defs><clipPath id="198329a97d"><path d="M 3 43.746094 L 224 43.746094 L 224 255.882812 L 3 255.882812 Z M 3 43.746094 " clip-rule="nonzero"/></clipPath></defs><g clip-path="url(#198329a97d)"><path fill="#5364ff" d="M 193.535156 150.445312 C 187.582031 150.445312 182.742188 145.609375 182.742188 139.667969 C 182.742188 133.722656 187.582031 128.886719 193.535156 128.886719 C 199.488281 128.886719 204.332031 133.722656 204.332031 139.667969 C 204.332031 145.609375 199.488281 150.445312 193.535156 150.445312 Z M 49.5625 236.847656 L 27.96875 236.847656 L 27.96875 215.285156 L 49.5625 215.285156 Z M 223.398438 139.667969 C 223.398438 124.894531 212.578125 112.632812 198.441406 110.285156 C 185.984375 71.726562 149.71875 43.746094 107.015625 43.746094 L 29.230469 43.746094 L 29.230469 143.085938 L 16.757812 130.628906 L 3.273438 144.089844 L 38.765625 179.53125 L 74.253906 144.089844 L 60.773438 130.628906 L 48.296875 143.085938 L 48.296875 62.785156 L 107.015625 62.785156 C 140.242188 62.785156 168.542969 83.949219 179.308594 113.457031 C 170.003906 118.511719 163.675781 128.363281 163.675781 139.667969 C 163.675781 150.972656 170.011719 160.832031 179.320312 165.886719 C 168.558594 195.390625 140.242188 216.546875 107.015625 216.546875 L 68.625 216.546875 L 68.625 196.246094 L 8.902344 196.246094 L 8.902344 255.882812 L 68.625 255.882812 L 68.625 235.582031 L 107.015625 235.582031 C 149.703125 235.582031 185.894531 207.597656 198.359375 169.058594 C 212.535156 166.746094 223.398438 154.464844 223.398438 139.667969 " fill-opacity="1" fill-rule="nonzero"/></g></svg>